<mxfile host="app.diagrams.net" agent="Mozilla/5.0 (Windows NT 10.0; Win64; x64) AppleWebKit/537.36 (KHTML, like Gecko) Chrome/130.0.0.0 Safari/537.36" version="24.8.3">
  <diagram id="C5RBs43oDa-KdzZeNtuy" name="Page-1">
    <mxGraphModel dx="1434" dy="784" grid="1" gridSize="10" guides="1" tooltips="1" connect="1" arrows="1" fold="1" page="1" pageScale="1" pageWidth="827" pageHeight="1169" math="0" shadow="0">
      <root>
        <mxCell id="WIyWlLk6GJQsqaUBKTNV-0" />
        <mxCell id="WIyWlLk6GJQsqaUBKTNV-1" parent="WIyWlLk6GJQsqaUBKTNV-0" />
        <mxCell id="wLxp5FZqkMn3pI5LJp9S-1" value="Game" style="swimlane;fontStyle=0;childLayout=stackLayout;horizontal=1;startSize=30;horizontalStack=0;resizeParent=1;resizeParentMax=0;resizeLast=0;collapsible=1;marginBottom=0;whiteSpace=wrap;html=1;" vertex="1" parent="WIyWlLk6GJQsqaUBKTNV-1">
          <mxGeometry x="100" y="240" width="140" height="120" as="geometry" />
        </mxCell>
        <mxCell id="wLxp5FZqkMn3pI5LJp9S-2" value="Player Array" style="text;strokeColor=none;fillColor=none;align=left;verticalAlign=middle;spacingLeft=4;spacingRight=4;overflow=hidden;points=[[0,0.5],[1,0.5]];portConstraint=eastwest;rotatable=0;whiteSpace=wrap;html=1;" vertex="1" parent="wLxp5FZqkMn3pI5LJp9S-1">
          <mxGeometry y="30" width="140" height="30" as="geometry" />
        </mxCell>
        <mxCell id="wLxp5FZqkMn3pI5LJp9S-3" value="Grid" style="text;strokeColor=none;fillColor=none;align=left;verticalAlign=middle;spacingLeft=4;spacingRight=4;overflow=hidden;points=[[0,0.5],[1,0.5]];portConstraint=eastwest;rotatable=0;whiteSpace=wrap;html=1;" vertex="1" parent="wLxp5FZqkMn3pI5LJp9S-1">
          <mxGeometry y="60" width="140" height="30" as="geometry" />
        </mxCell>
        <mxCell id="wLxp5FZqkMn3pI5LJp9S-4" value="Chaos Council Events" style="text;strokeColor=none;fillColor=none;align=left;verticalAlign=middle;spacingLeft=4;spacingRight=4;overflow=hidden;points=[[0,0.5],[1,0.5]];portConstraint=eastwest;rotatable=0;whiteSpace=wrap;html=1;" vertex="1" parent="wLxp5FZqkMn3pI5LJp9S-1">
          <mxGeometry y="90" width="140" height="30" as="geometry" />
        </mxCell>
        <mxCell id="wLxp5FZqkMn3pI5LJp9S-31" style="edgeStyle=orthogonalEdgeStyle;rounded=0;orthogonalLoop=1;jettySize=auto;html=1;entryX=1;entryY=0.5;entryDx=0;entryDy=0;" edge="1" parent="WIyWlLk6GJQsqaUBKTNV-1" source="wLxp5FZqkMn3pI5LJp9S-5" target="wLxp5FZqkMn3pI5LJp9S-3">
          <mxGeometry relative="1" as="geometry" />
        </mxCell>
        <mxCell id="wLxp5FZqkMn3pI5LJp9S-5" value="Grid" style="swimlane;fontStyle=0;childLayout=stackLayout;horizontal=1;startSize=30;horizontalStack=0;resizeParent=1;resizeParentMax=0;resizeLast=0;collapsible=1;marginBottom=0;whiteSpace=wrap;html=1;" vertex="1" parent="WIyWlLk6GJQsqaUBKTNV-1">
          <mxGeometry x="340" y="340" width="140" height="60" as="geometry" />
        </mxCell>
        <mxCell id="wLxp5FZqkMn3pI5LJp9S-6" value="Layer Array" style="text;strokeColor=none;fillColor=none;align=left;verticalAlign=middle;spacingLeft=4;spacingRight=4;overflow=hidden;points=[[0,0.5],[1,0.5]];portConstraint=eastwest;rotatable=0;whiteSpace=wrap;html=1;" vertex="1" parent="wLxp5FZqkMn3pI5LJp9S-5">
          <mxGeometry y="30" width="140" height="30" as="geometry" />
        </mxCell>
        <mxCell id="wLxp5FZqkMn3pI5LJp9S-14" value="Layer" style="swimlane;fontStyle=0;childLayout=stackLayout;horizontal=1;startSize=30;horizontalStack=0;resizeParent=1;resizeParentMax=0;resizeLast=0;collapsible=1;marginBottom=0;whiteSpace=wrap;html=1;" vertex="1" parent="WIyWlLk6GJQsqaUBKTNV-1">
          <mxGeometry x="490" y="430" width="140" height="60" as="geometry" />
        </mxCell>
        <mxCell id="wLxp5FZqkMn3pI5LJp9S-15" value="Tile array" style="text;strokeColor=none;fillColor=none;align=left;verticalAlign=middle;spacingLeft=4;spacingRight=4;overflow=hidden;points=[[0,0.5],[1,0.5]];portConstraint=eastwest;rotatable=0;whiteSpace=wrap;html=1;" vertex="1" parent="wLxp5FZqkMn3pI5LJp9S-14">
          <mxGeometry y="30" width="140" height="30" as="geometry" />
        </mxCell>
        <mxCell id="wLxp5FZqkMn3pI5LJp9S-18" value="Tile" style="swimlane;fontStyle=0;childLayout=stackLayout;horizontal=1;startSize=30;horizontalStack=0;resizeParent=1;resizeParentMax=0;resizeLast=0;collapsible=1;marginBottom=0;whiteSpace=wrap;html=1;" vertex="1" parent="WIyWlLk6GJQsqaUBKTNV-1">
          <mxGeometry x="600" y="510" width="140" height="150" as="geometry" />
        </mxCell>
        <mxCell id="wLxp5FZqkMn3pI5LJp9S-19" value="X position" style="text;strokeColor=none;fillColor=none;align=left;verticalAlign=middle;spacingLeft=4;spacingRight=4;overflow=hidden;points=[[0,0.5],[1,0.5]];portConstraint=eastwest;rotatable=0;whiteSpace=wrap;html=1;" vertex="1" parent="wLxp5FZqkMn3pI5LJp9S-18">
          <mxGeometry y="30" width="140" height="30" as="geometry" />
        </mxCell>
        <mxCell id="wLxp5FZqkMn3pI5LJp9S-20" value="Y Position" style="text;strokeColor=none;fillColor=none;align=left;verticalAlign=middle;spacingLeft=4;spacingRight=4;overflow=hidden;points=[[0,0.5],[1,0.5]];portConstraint=eastwest;rotatable=0;whiteSpace=wrap;html=1;" vertex="1" parent="wLxp5FZqkMn3pI5LJp9S-18">
          <mxGeometry y="60" width="140" height="30" as="geometry" />
        </mxCell>
        <mxCell id="wLxp5FZqkMn3pI5LJp9S-21" value="Tile Type" style="text;strokeColor=none;fillColor=none;align=left;verticalAlign=middle;spacingLeft=4;spacingRight=4;overflow=hidden;points=[[0,0.5],[1,0.5]];portConstraint=eastwest;rotatable=0;whiteSpace=wrap;html=1;" vertex="1" parent="wLxp5FZqkMn3pI5LJp9S-18">
          <mxGeometry y="90" width="140" height="30" as="geometry" />
        </mxCell>
        <mxCell id="wLxp5FZqkMn3pI5LJp9S-44" value="4 size Player Array" style="text;strokeColor=none;fillColor=none;align=left;verticalAlign=middle;spacingLeft=4;spacingRight=4;overflow=hidden;points=[[0,0.5],[1,0.5]];portConstraint=eastwest;rotatable=0;whiteSpace=wrap;html=1;" vertex="1" parent="wLxp5FZqkMn3pI5LJp9S-18">
          <mxGeometry y="120" width="140" height="30" as="geometry" />
        </mxCell>
        <mxCell id="wLxp5FZqkMn3pI5LJp9S-22" value="" style="endArrow=classic;startArrow=classic;html=1;rounded=0;" edge="1" parent="WIyWlLk6GJQsqaUBKTNV-1">
          <mxGeometry width="50" height="50" relative="1" as="geometry">
            <mxPoint x="230" y="170" as="sourcePoint" />
            <mxPoint x="320" y="170" as="targetPoint" />
          </mxGeometry>
        </mxCell>
        <mxCell id="wLxp5FZqkMn3pI5LJp9S-23" value="to" style="text;html=1;align=center;verticalAlign=middle;whiteSpace=wrap;rounded=0;" vertex="1" parent="WIyWlLk6GJQsqaUBKTNV-1">
          <mxGeometry x="240" y="140" width="60" height="30" as="geometry" />
        </mxCell>
        <mxCell id="wLxp5FZqkMn3pI5LJp9S-30" style="edgeStyle=orthogonalEdgeStyle;rounded=0;orthogonalLoop=1;jettySize=auto;html=1;entryX=0.5;entryY=0;entryDx=0;entryDy=0;" edge="1" parent="WIyWlLk6GJQsqaUBKTNV-1" source="wLxp5FZqkMn3pI5LJp9S-3" target="wLxp5FZqkMn3pI5LJp9S-5">
          <mxGeometry relative="1" as="geometry" />
        </mxCell>
        <mxCell id="wLxp5FZqkMn3pI5LJp9S-32" style="edgeStyle=orthogonalEdgeStyle;rounded=0;orthogonalLoop=1;jettySize=auto;html=1;exitX=1;exitY=0.5;exitDx=0;exitDy=0;entryX=0.5;entryY=0;entryDx=0;entryDy=0;" edge="1" parent="WIyWlLk6GJQsqaUBKTNV-1" source="wLxp5FZqkMn3pI5LJp9S-6" target="wLxp5FZqkMn3pI5LJp9S-14">
          <mxGeometry relative="1" as="geometry" />
        </mxCell>
        <mxCell id="wLxp5FZqkMn3pI5LJp9S-33" value="one" style="rounded=0;whiteSpace=wrap;html=1;" vertex="1" parent="WIyWlLk6GJQsqaUBKTNV-1">
          <mxGeometry x="170" y="150" width="60" height="40" as="geometry" />
        </mxCell>
        <mxCell id="wLxp5FZqkMn3pI5LJp9S-35" value="one" style="rounded=0;whiteSpace=wrap;html=1;" vertex="1" parent="WIyWlLk6GJQsqaUBKTNV-1">
          <mxGeometry x="320" y="150" width="60" height="40" as="geometry" />
        </mxCell>
        <mxCell id="wLxp5FZqkMn3pI5LJp9S-36" value="" style="endArrow=none;startArrow=block;html=1;rounded=0;startFill=1;endFill=0;" edge="1" parent="WIyWlLk6GJQsqaUBKTNV-1">
          <mxGeometry width="50" height="50" relative="1" as="geometry">
            <mxPoint x="230" y="110" as="sourcePoint" />
            <mxPoint x="320" y="110" as="targetPoint" />
          </mxGeometry>
        </mxCell>
        <mxCell id="wLxp5FZqkMn3pI5LJp9S-37" value="to" style="text;html=1;align=center;verticalAlign=middle;whiteSpace=wrap;rounded=0;" vertex="1" parent="WIyWlLk6GJQsqaUBKTNV-1">
          <mxGeometry x="240" y="70" width="60" height="30" as="geometry" />
        </mxCell>
        <mxCell id="wLxp5FZqkMn3pI5LJp9S-38" value="one" style="rounded=0;whiteSpace=wrap;html=1;" vertex="1" parent="WIyWlLk6GJQsqaUBKTNV-1">
          <mxGeometry x="170" y="90" width="60" height="40" as="geometry" />
        </mxCell>
        <mxCell id="wLxp5FZqkMn3pI5LJp9S-39" value="many" style="rounded=0;whiteSpace=wrap;html=1;" vertex="1" parent="WIyWlLk6GJQsqaUBKTNV-1">
          <mxGeometry x="320" y="90" width="60" height="40" as="geometry" />
        </mxCell>
        <mxCell id="wLxp5FZqkMn3pI5LJp9S-40" value="" style="endArrow=baseDash;startArrow=baseDash;html=1;rounded=0;startFill=0;endFill=0;" edge="1" parent="WIyWlLk6GJQsqaUBKTNV-1">
          <mxGeometry width="50" height="50" relative="1" as="geometry">
            <mxPoint x="230" y="50" as="sourcePoint" />
            <mxPoint x="320" y="50" as="targetPoint" />
          </mxGeometry>
        </mxCell>
        <mxCell id="wLxp5FZqkMn3pI5LJp9S-41" value="to" style="text;html=1;align=center;verticalAlign=middle;whiteSpace=wrap;rounded=0;" vertex="1" parent="WIyWlLk6GJQsqaUBKTNV-1">
          <mxGeometry x="240" y="10" width="60" height="30" as="geometry" />
        </mxCell>
        <mxCell id="wLxp5FZqkMn3pI5LJp9S-42" value="many" style="rounded=0;whiteSpace=wrap;html=1;" vertex="1" parent="WIyWlLk6GJQsqaUBKTNV-1">
          <mxGeometry x="170" y="30" width="60" height="40" as="geometry" />
        </mxCell>
        <mxCell id="wLxp5FZqkMn3pI5LJp9S-43" value="many" style="rounded=0;whiteSpace=wrap;html=1;" vertex="1" parent="WIyWlLk6GJQsqaUBKTNV-1">
          <mxGeometry x="320" y="30" width="60" height="40" as="geometry" />
        </mxCell>
        <mxCell id="wLxp5FZqkMn3pI5LJp9S-46" style="edgeStyle=orthogonalEdgeStyle;rounded=0;orthogonalLoop=1;jettySize=auto;html=1;entryX=0.5;entryY=0;entryDx=0;entryDy=0;" edge="1" parent="WIyWlLk6GJQsqaUBKTNV-1" source="wLxp5FZqkMn3pI5LJp9S-15" target="wLxp5FZqkMn3pI5LJp9S-18">
          <mxGeometry relative="1" as="geometry" />
        </mxCell>
        <mxCell id="wLxp5FZqkMn3pI5LJp9S-47" value="Player" style="swimlane;fontStyle=0;childLayout=stackLayout;horizontal=1;startSize=30;horizontalStack=0;resizeParent=1;resizeParentMax=0;resizeLast=0;collapsible=1;marginBottom=0;whiteSpace=wrap;html=1;" vertex="1" parent="WIyWlLk6GJQsqaUBKTNV-1">
          <mxGeometry x="160" y="490" width="140" height="210" as="geometry" />
        </mxCell>
        <mxCell id="wLxp5FZqkMn3pI5LJp9S-49" value="Class" style="text;strokeColor=none;fillColor=none;align=left;verticalAlign=middle;spacingLeft=4;spacingRight=4;overflow=hidden;points=[[0,0.5],[1,0.5]];portConstraint=eastwest;rotatable=0;whiteSpace=wrap;html=1;" vertex="1" parent="wLxp5FZqkMn3pI5LJp9S-47">
          <mxGeometry y="30" width="140" height="30" as="geometry" />
        </mxCell>
        <mxCell id="wLxp5FZqkMn3pI5LJp9S-50" value="AP" style="text;strokeColor=none;fillColor=none;align=left;verticalAlign=middle;spacingLeft=4;spacingRight=4;overflow=hidden;points=[[0,0.5],[1,0.5]];portConstraint=eastwest;rotatable=0;whiteSpace=wrap;html=1;" vertex="1" parent="wLxp5FZqkMn3pI5LJp9S-47">
          <mxGeometry y="60" width="140" height="30" as="geometry" />
        </mxCell>
        <mxCell id="wLxp5FZqkMn3pI5LJp9S-51" value="HP" style="text;strokeColor=none;fillColor=none;align=left;verticalAlign=middle;spacingLeft=4;spacingRight=4;overflow=hidden;points=[[0,0.5],[1,0.5]];portConstraint=eastwest;rotatable=0;whiteSpace=wrap;html=1;" vertex="1" parent="wLxp5FZqkMn3pI5LJp9S-47">
          <mxGeometry y="90" width="140" height="30" as="geometry" />
        </mxCell>
        <mxCell id="wLxp5FZqkMn3pI5LJp9S-52" value="Range" style="text;strokeColor=none;fillColor=none;align=left;verticalAlign=middle;spacingLeft=4;spacingRight=4;overflow=hidden;points=[[0,0.5],[1,0.5]];portConstraint=eastwest;rotatable=0;whiteSpace=wrap;html=1;" vertex="1" parent="wLxp5FZqkMn3pI5LJp9S-47">
          <mxGeometry y="120" width="140" height="30" as="geometry" />
        </mxCell>
        <mxCell id="wLxp5FZqkMn3pI5LJp9S-63" value="Tile" style="text;strokeColor=none;fillColor=none;align=left;verticalAlign=middle;spacingLeft=4;spacingRight=4;overflow=hidden;points=[[0,0.5],[1,0.5]];portConstraint=eastwest;rotatable=0;whiteSpace=wrap;html=1;" vertex="1" parent="wLxp5FZqkMn3pI5LJp9S-47">
          <mxGeometry y="150" width="140" height="30" as="geometry" />
        </mxCell>
        <mxCell id="wLxp5FZqkMn3pI5LJp9S-64" value="Discord ID" style="text;strokeColor=none;fillColor=none;align=left;verticalAlign=middle;spacingLeft=4;spacingRight=4;overflow=hidden;points=[[0,0.5],[1,0.5]];portConstraint=eastwest;rotatable=0;whiteSpace=wrap;html=1;" vertex="1" parent="wLxp5FZqkMn3pI5LJp9S-47">
          <mxGeometry y="180" width="140" height="30" as="geometry" />
        </mxCell>
        <mxCell id="wLxp5FZqkMn3pI5LJp9S-55" style="edgeStyle=orthogonalEdgeStyle;rounded=0;orthogonalLoop=1;jettySize=auto;html=1;entryX=0.5;entryY=0;entryDx=0;entryDy=0;endArrow=none;endFill=0;startArrow=classic;startFill=1;" edge="1" parent="WIyWlLk6GJQsqaUBKTNV-1" source="wLxp5FZqkMn3pI5LJp9S-2" target="wLxp5FZqkMn3pI5LJp9S-47">
          <mxGeometry relative="1" as="geometry">
            <Array as="points">
              <mxPoint x="80" y="285" />
              <mxPoint x="80" y="395" />
              <mxPoint x="230" y="395" />
            </Array>
          </mxGeometry>
        </mxCell>
        <mxCell id="wLxp5FZqkMn3pI5LJp9S-57" style="edgeStyle=orthogonalEdgeStyle;rounded=0;orthogonalLoop=1;jettySize=auto;html=1;entryX=1;entryY=0.5;entryDx=0;entryDy=0;endArrow=none;endFill=0;startArrow=block;startFill=1;" edge="1" parent="WIyWlLk6GJQsqaUBKTNV-1" source="wLxp5FZqkMn3pI5LJp9S-44" target="wLxp5FZqkMn3pI5LJp9S-63">
          <mxGeometry relative="1" as="geometry">
            <Array as="points">
              <mxPoint x="550" y="645" />
              <mxPoint x="550" y="730" />
              <mxPoint x="340" y="730" />
              <mxPoint x="340" y="655" />
            </Array>
          </mxGeometry>
        </mxCell>
        <mxCell id="wLxp5FZqkMn3pI5LJp9S-62" style="edgeStyle=orthogonalEdgeStyle;rounded=0;orthogonalLoop=1;jettySize=auto;html=1;entryX=1;entryY=0.5;entryDx=0;entryDy=0;endArrow=none;endFill=0;startArrow=block;startFill=1;exitX=0.5;exitY=0;exitDx=0;exitDy=0;" edge="1" parent="WIyWlLk6GJQsqaUBKTNV-1" source="wLxp5FZqkMn3pI5LJp9S-58" target="wLxp5FZqkMn3pI5LJp9S-49">
          <mxGeometry relative="1" as="geometry" />
        </mxCell>
        <mxCell id="wLxp5FZqkMn3pI5LJp9S-58" value="Class" style="swimlane;fontStyle=0;childLayout=stackLayout;horizontal=1;startSize=30;horizontalStack=0;resizeParent=1;resizeParentMax=0;resizeLast=0;collapsible=1;marginBottom=0;whiteSpace=wrap;html=1;" vertex="1" parent="WIyWlLk6GJQsqaUBKTNV-1">
          <mxGeometry x="370" y="580" width="140" height="120" as="geometry" />
        </mxCell>
        <mxCell id="wLxp5FZqkMn3pI5LJp9S-59" value="Ability Description" style="text;strokeColor=none;fillColor=none;align=left;verticalAlign=middle;spacingLeft=4;spacingRight=4;overflow=hidden;points=[[0,0.5],[1,0.5]];portConstraint=eastwest;rotatable=0;whiteSpace=wrap;html=1;" vertex="1" parent="wLxp5FZqkMn3pI5LJp9S-58">
          <mxGeometry y="30" width="140" height="30" as="geometry" />
        </mxCell>
        <mxCell id="wLxp5FZqkMn3pI5LJp9S-60" value="Starting Stats" style="text;strokeColor=none;fillColor=none;align=left;verticalAlign=middle;spacingLeft=4;spacingRight=4;overflow=hidden;points=[[0,0.5],[1,0.5]];portConstraint=eastwest;rotatable=0;whiteSpace=wrap;html=1;" vertex="1" parent="wLxp5FZqkMn3pI5LJp9S-58">
          <mxGeometry y="60" width="140" height="30" as="geometry" />
        </mxCell>
        <mxCell id="wLxp5FZqkMn3pI5LJp9S-61" value="Role Color" style="text;strokeColor=none;fillColor=none;align=left;verticalAlign=middle;spacingLeft=4;spacingRight=4;overflow=hidden;points=[[0,0.5],[1,0.5]];portConstraint=eastwest;rotatable=0;whiteSpace=wrap;html=1;" vertex="1" parent="wLxp5FZqkMn3pI5LJp9S-58">
          <mxGeometry y="90" width="140" height="30" as="geometry" />
        </mxCell>
      </root>
    </mxGraphModel>
  </diagram>
</mxfile>
